<mxfile host="app.diagrams.net" agent="Mozilla/5.0 (X11; Linux x86_64) AppleWebKit/537.36 (KHTML, like Gecko) Chrome/137.0.0.0 Safari/537.36" version="28.2.5">
  <diagram name="第 1 页" id="BwfAUtvcyZKHqzXVOj9a">
    <mxGraphModel dx="1479" dy="964" grid="0" gridSize="10" guides="1" tooltips="1" connect="1" arrows="1" fold="1" page="1" pageScale="1" pageWidth="827" pageHeight="1169" math="0" shadow="0">
      <root>
        <mxCell id="0" />
        <mxCell id="1" parent="0" />
        <mxCell id="CNc3JrmywO0Nc3QqSIQl-23" style="edgeStyle=orthogonalEdgeStyle;rounded=0;sketch=1;hachureGap=4;jiggle=2;curveFitting=1;orthogonalLoop=1;jettySize=auto;html=1;exitX=0;exitY=0.5;exitDx=0;exitDy=0;exitPerimeter=0;entryX=1;entryY=0.5;entryDx=0;entryDy=0;fontFamily=Comic Sans MS;" edge="1" parent="1" source="CNc3JrmywO0Nc3QqSIQl-1" target="CNc3JrmywO0Nc3QqSIQl-9">
          <mxGeometry relative="1" as="geometry" />
        </mxCell>
        <mxCell id="CNc3JrmywO0Nc3QqSIQl-24" value="&lt;font style=&quot;font-size: 13px;&quot;&gt;find&lt;/font&gt;" style="edgeLabel;html=1;align=center;verticalAlign=middle;resizable=0;points=[];sketch=1;hachureGap=4;jiggle=2;curveFitting=1;fontFamily=Comic Sans MS;" vertex="1" connectable="0" parent="CNc3JrmywO0Nc3QqSIQl-23">
          <mxGeometry x="0.0539" y="-3" relative="1" as="geometry">
            <mxPoint as="offset" />
          </mxGeometry>
        </mxCell>
        <mxCell id="CNc3JrmywO0Nc3QqSIQl-26" style="edgeStyle=orthogonalEdgeStyle;rounded=0;sketch=1;hachureGap=4;jiggle=2;curveFitting=1;orthogonalLoop=1;jettySize=auto;html=1;entryX=0.5;entryY=1;entryDx=0;entryDy=0;fontFamily=Comic Sans MS;" edge="1" parent="1" source="CNc3JrmywO0Nc3QqSIQl-1" target="CNc3JrmywO0Nc3QqSIQl-25">
          <mxGeometry relative="1" as="geometry" />
        </mxCell>
        <mxCell id="CNc3JrmywO0Nc3QqSIQl-27" value="&lt;font style=&quot;font-size: 13px;&quot;&gt;not find&lt;/font&gt;" style="edgeLabel;html=1;align=center;verticalAlign=middle;resizable=0;points=[];sketch=1;hachureGap=4;jiggle=2;curveFitting=1;fontFamily=Comic Sans MS;" vertex="1" connectable="0" parent="CNc3JrmywO0Nc3QqSIQl-26">
          <mxGeometry x="0.0125" relative="1" as="geometry">
            <mxPoint y="1" as="offset" />
          </mxGeometry>
        </mxCell>
        <mxCell id="CNc3JrmywO0Nc3QqSIQl-1" value="&lt;font style=&quot;font-size: 15px;&quot;&gt;PLSQL META&lt;/font&gt;" style="shape=cylinder3;whiteSpace=wrap;html=1;boundedLbl=1;backgroundOutline=1;size=15;sketch=1;curveFitting=1;jiggle=2;fontFamily=Comic Sans MS;" vertex="1" parent="1">
          <mxGeometry x="520" y="330" width="70" height="90" as="geometry" />
        </mxCell>
        <mxCell id="CNc3JrmywO0Nc3QqSIQl-13" style="edgeStyle=orthogonalEdgeStyle;rounded=0;sketch=1;hachureGap=4;jiggle=2;curveFitting=1;orthogonalLoop=1;jettySize=auto;html=1;exitX=1;exitY=0.5;exitDx=0;exitDy=0;exitPerimeter=0;entryX=0;entryY=0.5;entryDx=0;entryDy=0;fontFamily=Comic Sans MS;" edge="1" parent="1" source="CNc3JrmywO0Nc3QqSIQl-3" target="CNc3JrmywO0Nc3QqSIQl-9">
          <mxGeometry relative="1" as="geometry" />
        </mxCell>
        <mxCell id="CNc3JrmywO0Nc3QqSIQl-14" value="&lt;font style=&quot;font-size: 13px;&quot;&gt;find&lt;/font&gt;" style="edgeLabel;html=1;align=center;verticalAlign=middle;resizable=0;points=[];sketch=1;hachureGap=4;jiggle=2;curveFitting=1;fontFamily=Comic Sans MS;" vertex="1" connectable="0" parent="CNc3JrmywO0Nc3QqSIQl-13">
          <mxGeometry x="-0.1193" y="3" relative="1" as="geometry">
            <mxPoint as="offset" />
          </mxGeometry>
        </mxCell>
        <mxCell id="CNc3JrmywO0Nc3QqSIQl-16" style="edgeStyle=orthogonalEdgeStyle;rounded=0;sketch=1;hachureGap=4;jiggle=2;curveFitting=1;orthogonalLoop=1;jettySize=auto;html=1;exitX=0.5;exitY=1;exitDx=0;exitDy=0;exitPerimeter=0;entryX=0;entryY=0.5;entryDx=0;entryDy=0;fontFamily=Comic Sans MS;entryPerimeter=0;" edge="1" parent="1" source="CNc3JrmywO0Nc3QqSIQl-3" target="CNc3JrmywO0Nc3QqSIQl-17">
          <mxGeometry relative="1" as="geometry">
            <mxPoint x="339" y="510" as="targetPoint" />
          </mxGeometry>
        </mxCell>
        <mxCell id="CNc3JrmywO0Nc3QqSIQl-20" value="&lt;font style=&quot;font-size: 13px;&quot;&gt;not find&lt;/font&gt;" style="edgeLabel;html=1;align=center;verticalAlign=middle;resizable=0;points=[];sketch=1;hachureGap=4;jiggle=2;curveFitting=1;fontFamily=Comic Sans MS;" vertex="1" connectable="0" parent="CNc3JrmywO0Nc3QqSIQl-16">
          <mxGeometry x="-0.1339" y="2" relative="1" as="geometry">
            <mxPoint y="1" as="offset" />
          </mxGeometry>
        </mxCell>
        <mxCell id="CNc3JrmywO0Nc3QqSIQl-3" value="&lt;font style=&quot;font-size: 15px;&quot;&gt;SQL META&lt;/font&gt;" style="shape=cylinder3;whiteSpace=wrap;html=1;boundedLbl=1;backgroundOutline=1;size=15;sketch=1;curveFitting=1;jiggle=2;fontFamily=Comic Sans MS;" vertex="1" parent="1">
          <mxGeometry x="180" y="330" width="70" height="90" as="geometry" />
        </mxCell>
        <mxCell id="CNc3JrmywO0Nc3QqSIQl-5" style="edgeStyle=orthogonalEdgeStyle;rounded=0;sketch=1;hachureGap=4;jiggle=2;curveFitting=1;orthogonalLoop=1;jettySize=auto;html=1;fontFamily=Comic Sans MS;" edge="1" parent="1" source="CNc3JrmywO0Nc3QqSIQl-4" target="CNc3JrmywO0Nc3QqSIQl-3">
          <mxGeometry relative="1" as="geometry" />
        </mxCell>
        <mxCell id="CNc3JrmywO0Nc3QqSIQl-4" value="&lt;font style=&quot;font-size: 15px;&quot;&gt;start&lt;/font&gt;" style="rounded=1;whiteSpace=wrap;html=1;sketch=1;hachureGap=4;jiggle=2;curveFitting=1;fontFamily=Comic Sans MS;" vertex="1" parent="1">
          <mxGeometry x="175" y="210" width="80" height="40" as="geometry" />
        </mxCell>
        <mxCell id="CNc3JrmywO0Nc3QqSIQl-9" value="&lt;font style=&quot;font-size: 15px;&quot;&gt;success&lt;/font&gt;" style="rounded=1;whiteSpace=wrap;html=1;sketch=1;hachureGap=4;jiggle=2;curveFitting=1;fontFamily=Comic Sans MS;" vertex="1" parent="1">
          <mxGeometry x="359" y="355" width="80" height="40" as="geometry" />
        </mxCell>
        <mxCell id="CNc3JrmywO0Nc3QqSIQl-18" style="edgeStyle=orthogonalEdgeStyle;rounded=0;sketch=1;hachureGap=4;jiggle=2;curveFitting=1;orthogonalLoop=1;jettySize=auto;html=1;exitX=0.5;exitY=0;exitDx=0;exitDy=0;exitPerimeter=0;entryX=0.5;entryY=1;entryDx=0;entryDy=0;fontFamily=Comic Sans MS;" edge="1" parent="1" source="CNc3JrmywO0Nc3QqSIQl-17" target="CNc3JrmywO0Nc3QqSIQl-9">
          <mxGeometry relative="1" as="geometry" />
        </mxCell>
        <mxCell id="CNc3JrmywO0Nc3QqSIQl-19" value="find" style="edgeLabel;html=1;align=center;verticalAlign=middle;resizable=0;points=[];sketch=1;hachureGap=4;jiggle=2;curveFitting=1;fontFamily=Comic Sans MS;" vertex="1" connectable="0" parent="CNc3JrmywO0Nc3QqSIQl-18">
          <mxGeometry x="-0.0727" y="-2" relative="1" as="geometry">
            <mxPoint y="1" as="offset" />
          </mxGeometry>
        </mxCell>
        <mxCell id="CNc3JrmywO0Nc3QqSIQl-21" style="edgeStyle=orthogonalEdgeStyle;rounded=0;sketch=1;hachureGap=4;jiggle=2;curveFitting=1;orthogonalLoop=1;jettySize=auto;html=1;exitX=1;exitY=0.5;exitDx=0;exitDy=0;exitPerimeter=0;fontFamily=Comic Sans MS;" edge="1" parent="1" source="CNc3JrmywO0Nc3QqSIQl-17" target="CNc3JrmywO0Nc3QqSIQl-1">
          <mxGeometry relative="1" as="geometry" />
        </mxCell>
        <mxCell id="CNc3JrmywO0Nc3QqSIQl-28" value="&lt;font style=&quot;font-size: 13px;&quot;&gt;not find&lt;/font&gt;" style="edgeLabel;html=1;align=center;verticalAlign=middle;resizable=0;points=[];sketch=1;hachureGap=4;jiggle=2;curveFitting=1;fontFamily=Comic Sans MS;" vertex="1" connectable="0" parent="CNc3JrmywO0Nc3QqSIQl-21">
          <mxGeometry x="-0.0102" y="-2" relative="1" as="geometry">
            <mxPoint y="1" as="offset" />
          </mxGeometry>
        </mxCell>
        <mxCell id="CNc3JrmywO0Nc3QqSIQl-17" value="&lt;span style=&quot;font-size: 15px;&quot;&gt;local context&lt;/span&gt;" style="shape=cylinder3;whiteSpace=wrap;html=1;boundedLbl=1;backgroundOutline=1;size=15;sketch=1;curveFitting=1;jiggle=2;fontFamily=Comic Sans MS;" vertex="1" parent="1">
          <mxGeometry x="364" y="450" width="70" height="90" as="geometry" />
        </mxCell>
        <mxCell id="CNc3JrmywO0Nc3QqSIQl-25" value="&lt;font style=&quot;font-size: 15px;&quot;&gt;failed&lt;/font&gt;" style="rounded=1;whiteSpace=wrap;html=1;sketch=1;hachureGap=4;jiggle=2;curveFitting=1;fontFamily=Comic Sans MS;" vertex="1" parent="1">
          <mxGeometry x="515" y="210" width="80" height="40" as="geometry" />
        </mxCell>
      </root>
    </mxGraphModel>
  </diagram>
</mxfile>
